HIERARCHY
ROOT Hips
{
	OFFSET 0.000000 0.000000 0.000000 
	CHANNELS 6 Xposition Yposition Zposition Zrotation Yrotation Xrotation
	JOINT LeftUpLeg
	{
		OFFSET 1.363060 -1.794630 0.839290 
		CHANNELS 3 Zrotation Yrotation Xrotation
		JOINT LeftLeg
		{
			OFFSET 2.448110 -6.726130 0.000000 
			CHANNELS 3 Zrotation Yrotation Xrotation
			JOINT LeftFoot
			{
				OFFSET 2.562200 -7.039590 0.000000 
				CHANNELS 3 Zrotation Yrotation Xrotation
				JOINT LeftToeBase
				{
					OFFSET 0.157640 -0.433110 2.322550 
					CHANNELS 3 Zrotation Yrotation Xrotation
					End Site
					{
						OFFSET 0.000000 0.000000 0.000000 
					}
				}
			}
		}
	}
	JOINT RightUpLeg
	{
		OFFSET -1.305520 -1.794630 0.839290 
		CHANNELS 3 Zrotation Yrotation Xrotation
		JOINT RightLeg
		{
			OFFSET -2.542530 -6.985550 0.000000 
			CHANNELS 3 Zrotation Yrotation Xrotation
			JOINT RightFoot
			{
				OFFSET -2.568260 -7.056230 0.000000 
				CHANNELS 3 Zrotation Yrotation Xrotation
				JOINT RightToeBase
				{
					OFFSET -0.164730 -0.452590 2.363150 
					CHANNELS 3 Zrotation Yrotation Xrotation
					End Site
					{
						OFFSET 0.000000 0.000000 0.000000 
					}
				}
			}
		}
	}
	JOINT Spine
	{
		OFFSET 0.028270 2.035590 -0.193380 
		CHANNELS 3 Zrotation Yrotation Xrotation
		JOINT Spine1
		{
			OFFSET 0.056720 2.048850 -0.042750 
			CHANNELS 3 Zrotation Yrotation Xrotation
			JOINT Neck1
			{
				OFFSET -0.054170 1.746240 0.172020 
				CHANNELS 3 Zrotation Yrotation Xrotation
				JOINT Head
				{
					OFFSET 0.104070 1.761360 -0.123970 
					CHANNELS 3 Zrotation Yrotation Xrotation
					End Site
					{
						OFFSET 0.000000 0.000000 0.000000 
					}
				}
			}
			JOINT LeftArm
			{
				OFFSET 3.362410 1.200890 -0.311210 
				CHANNELS 3 Zrotation Yrotation Xrotation
				JOINT LeftForeArm
				{
					OFFSET 4.983000 -0.000000 -0.000000 
					CHANNELS 3 Zrotation Yrotation Xrotation
					JOINT LeftHand
					{
						OFFSET 3.483560 -0.000000 -0.000000 
						CHANNELS 3 Zrotation Yrotation Xrotation
						JOINT LeftHandIndex1
						{
							OFFSET 0.715260 -0.000000 -0.000000 
							CHANNELS 3 Zrotation Yrotation Xrotation
							End Site
							{
								OFFSET 0.000000 0.000000 0.000000 
							}
						}
					}
				}
			}
			JOINT RightArm
			{
				OFFSET -3.136600 1.374050 -0.404650 
				CHANNELS 3 Zrotation Yrotation Xrotation
				JOINT RightForeArm
				{
					OFFSET -5.241900 -0.000000 -0.000000 
					CHANNELS 3 Zrotation Yrotation Xrotation
					JOINT RightHand
					{
						OFFSET -3.444170 -0.000000 -0.000000 
						CHANNELS 3 Zrotation Yrotation Xrotation
						JOINT RightHandIndex1
						{
							OFFSET -0.622530 -0.000000 -0.000000 
							CHANNELS 3 Zrotation Yrotation Xrotation
							End Site
							{
								OFFSET 0.000000 0.000000 0.000000 
							}
						}
					}
				}
			}
		}
	}
}
MOTION
Frames: 18
Frame Time: 0.041667
10.328523 18.035796 -39.770976 179.299206 -44.138235 176.624527 -25.966214 -10.456488 -0.920943 -1.856225 8.931548 26.196642 -4.153693 13.139569 2.346689 0.151300 -2.506400 -6.907500 16.292936 21.818877 -12.924342 -5.660612 -16.741614 52.372086 -1.982211 2.669412 -1.167871 -2.085300 9.041500 -25.925400 5.360331 3.014550 -3.613563 -1.591613 0.997315 -7.752111 -2.129116 -5.103463 6.411754 -3.986200 -2.859900 1.613300 -27.955352 19.941915 -48.874594 18.746197 -22.043761 -4.578212 1.728903 0.108224 8.981793 -7.125000 0.000000 0.000000 32.747631 -5.925093 -31.171051 -16.021391 19.864039 -5.503040 2.487500 1.353852 27.284752 7.125000 0.000000 0.000000 
10.330330 18.027845 -39.831327 179.197140 -46.117036 176.737161 -25.737638 -10.866616 -1.005722 -1.700694 9.154855 26.960444 -3.330024 11.296928 3.002441 0.309900 -3.578800 -9.894600 16.105426 21.914168 -12.797123 -4.867310 -16.207208 49.965350 -2.586250 4.385850 -0.076405 -1.361200 7.384900 -20.860700 5.087970 3.331054 -3.551998 -1.649947 1.182080 -7.670361 -2.090228 -5.675514 6.474328 -3.877600 -3.144600 1.622100 -25.715626 18.341130 -50.391183 18.213545 -21.441873 -4.365551 1.753760 -0.088699 11.980695 -7.125000 0.000000 0.000000 32.936124 -5.079723 -30.567017 -16.561390 20.467259 -5.667437 2.444691 1.326618 27.317735 7.125000 0.000000 0.000000 
10.331173 18.023388 -39.905773 179.181771 -48.214688 176.658935 -25.402458 -11.065549 -1.025633 -1.546594 9.359096 27.666475 -2.723980 9.933799 3.470840 0.786300 -5.660800 -15.803200 16.078872 22.300508 -12.250624 -4.136475 -15.651211 47.667698 -2.707499 4.485192 -0.077554 -2.041800 8.952600 -25.647200 4.922656 3.505189 -3.384319 -1.600116 1.309686 -7.460686 -1.980536 -6.024255 6.578834 -3.771100 -3.314600 1.668100 -23.664738 17.295103 -50.684489 17.808811 -20.972519 -4.198459 1.722421 -0.195548 13.953104 -7.125000 0.000000 0.000000 32.086730 -3.766283 -29.684818 -15.850027 19.662858 -5.481445 2.505573 1.384889 27.279115 7.125000 0.000000 0.000000 
10.328162 18.021220 -39.975400 179.467481 -50.291083 176.302444 -24.901511 -11.320246 -0.996994 -1.412483 9.526265 28.266036 -2.100183 8.534175 4.100107 0.971000 -6.273600 -17.580200 16.203542 22.789881 -11.580371 -3.458172 -15.073968 45.490771 -3.224647 5.823956 0.159135 -1.662700 8.125000 -23.094500 4.724409 3.758912 -3.227160 -1.715916 1.456593 -7.361485 -1.827616 -6.314686 6.611275 -3.645600 -3.447300 1.661300 -21.633481 16.733610 -48.813698 17.496737 -20.628557 -4.061591 1.656290 -0.212441 14.484983 -7.125000 0.000000 0.000000 32.522205 -3.380703 -28.042427 -16.583673 20.527835 -5.718116 2.481478 1.335356 26.970613 7.125000 0.000000 0.000000 
10.328644 18.022906 -40.027439 178.853256 -52.440195 177.027346 -24.961720 -11.667452 -1.260256 -1.319957 9.673545 28.704652 -1.578382 7.353749 4.897336 1.025500 -6.441900 -18.072100 15.510853 23.105043 -11.472127 -2.846911 -14.559392 43.411471 -3.218838 5.451095 0.127103 -2.050200 8.969900 -25.701300 4.178238 4.178202 -3.263948 -1.985612 1.683603 -7.320425 -0.931383 -6.665782 6.779749 -3.089500 -3.596300 1.747000 -19.400737 15.848638 -45.845576 17.327964 -20.461114 -3.994435 1.586491 -0.198254 15.048972 -7.125000 0.000000 0.000000 32.396015 -3.801781 -23.864370 -16.842919 20.925230 -5.771592 2.494212 1.336852 24.558972 7.125000 0.000000 0.000000 
10.331655 18.026520 -40.091525 178.816866 -54.520233 177.087356 -24.651902 -11.633031 -1.489080 -1.223253 9.805013 29.118742 -1.240211 6.591672 5.543691 1.480800 -7.688700 -21.772400 15.396620 23.802319 -10.841269 -2.290668 -14.032157 41.518397 -3.026276 4.653204 -0.079285 -2.289400 9.444600 -27.196100 3.792197 4.602812 -3.182622 -2.259439 1.901521 -7.271560 -0.691796 -7.027503 6.875671 -2.920700 -3.762500 1.772700 -17.122467 14.359710 -43.613974 17.222751 -20.403772 -3.991124 1.578549 -0.195249 16.975734 -7.125000 0.000000 0.000000 32.586371 -4.029052 -21.403685 -17.187329 21.406078 -5.957135 2.524687 1.324553 24.399592 7.125000 0.000000 0.000000 
10.330932 18.030254 -40.159586 178.343435 -56.638491 177.465551 -24.625211 -11.393805 -1.656562 -1.126621 9.927853 29.548058 -0.817003 5.605856 5.848494 1.943900 -8.748300 -25.011200 14.942964 24.880191 -10.023794 -1.797518 -13.483074 39.722432 -3.298795 5.261157 0.320732 -1.791700 8.418000 -23.991000 3.366096 4.981262 -2.995174 -2.427169 2.123623 -7.056282 0.348810 -7.223825 7.403267 -2.358600 -3.837200 2.136500 -15.128367 14.037047 -39.079128 17.357666 -20.677315 -4.086878 1.549262 -0.158048 16.453366 -7.125000 0.000000 0.000000 32.466743 -4.339305 -18.057085 -17.363531 21.700130 -6.050898 2.570570 1.280007 24.345818 7.125000 0.000000 0.000000 
10.329848 18.045312 -40.227285 177.855585 -58.910188 177.946887 -24.511737 -11.460672 -1.723310 -1.046870 10.020983 29.958309 0.091171 3.461524 6.542702 0.825500 -5.796700 -16.195800 14.648832 25.184047 -9.533107 -1.343972 -13.005618 38.099810 -2.788882 3.600514 -0.069705 -2.289200 9.444200 -27.195000 2.895700 5.319588 -2.824115 -2.756661 2.290298 -6.791853 0.033821 -7.354522 7.614953 -2.630100 -3.881200 2.229400 -13.947127 11.621271 -44.331827 17.596041 -21.057642 -4.322469 1.759843 -0.347137 25.679858 -7.125000 0.000000 0.000000 32.515490 -4.782527 -14.970338 -17.423109 21.816904 -6.070466 2.625724 1.146164 25.638386 7.125000 0.000000 0.000000 
10.335149 18.055431 -40.303538 177.786638 -61.448891 178.037552 -24.124621 -11.702284 -1.729122 -0.975158 10.108510 30.327189 0.846313 1.640095 7.302890 0.215100 -2.985900 -8.239400 14.594917 25.630183 -8.856560 -0.938215 -12.526104 36.610890 -2.787657 3.448752 -0.131475 -2.022000 8.911900 -25.520000 2.551571 5.538677 -2.744535 -2.958829 2.394007 -6.689255 0.195520 -7.490068 8.114509 -2.598900 -3.926600 2.512900 -12.198490 9.113965 -46.556506 17.699243 -21.256966 -4.454656 1.842404 -0.554078 31.527286 -7.125000 0.000000 0.000000 32.386236 -5.282098 -12.115535 -17.378077 21.840793 -6.088050 2.673717 1.008465 28.738280 7.125000 0.000000 0.000000 
10.344424 18.068923 -40.377140 177.627646 -64.172752 178.258212 -23.835421 -11.813542 -1.878402 -0.904314 10.218648 30.664661 1.133150 0.927488 7.829312 0.219900 -3.018700 -8.330700 14.398559 26.061170 -8.204669 -0.573275 -12.047612 35.210097 -3.100790 4.185166 0.273126 -1.591500 7.957600 -22.585400 2.068739 5.757115 -2.883778 -3.362356 2.477294 -6.931580 1.202708 -7.604670 9.069469 -2.118900 -3.940200 3.074300 -10.442115 7.677918 -43.244887 18.320718 -22.107973 -4.779459 1.811252 -0.718829 30.957510 -7.125000 0.000000 0.000000 32.455832 -6.052297 -9.204487 -17.202999 21.729176 -6.057662 2.703715 0.857145 32.791014 7.125000 0.000000 0.000000 
10.351290 18.089642 -40.443635 177.576657 -67.006740 178.501922 -23.576947 -12.185797 -2.035092 -0.821124 10.366958 31.041423 1.116042 0.952622 8.210353 0.336900 -3.730000 -10.318200 14.183352 26.224133 -7.773225 -0.236215 -11.598933 33.903495 -3.414066 4.936548 0.763604 -1.319900 7.276200 -20.536400 1.587599 5.899909 -3.006480 -3.868246 2.510217 -7.080133 1.858230 -7.638474 9.692820 -1.831200 -3.918600 3.428300 -8.704275 6.236005 -40.070959 18.804426 -22.827447 -5.069057 1.803032 -0.807433 30.639787 -7.125000 0.000000 0.000000 32.404344 -6.843051 -5.495399 -16.864069 21.442143 -5.950811 2.732836 0.716292 36.188158 7.125000 0.000000 0.000000 
10.356591 18.120601 -40.514948 177.537011 -70.037042 178.798117 -23.396756 -13.295574 -1.894722 -0.739367 10.528634 31.414301 0.962917 1.292568 8.519183 0.299800 -3.520400 -9.731100 14.057598 26.273256 -7.351751 0.101837 -11.157783 32.607680 -3.240406 4.366580 0.953028 -1.350200 7.356200 -20.774900 1.176288 6.056096 -3.043476 -4.285151 2.554892 -7.038746 2.224996 -7.587346 10.034407 -1.685000 -3.864400 3.617600 -7.006223 4.377501 -36.665835 19.159746 -23.389801 -5.292345 1.794910 -0.778188 31.175512 -7.125000 0.000000 0.000000 32.109748 -7.927000 -0.973254 -16.441487 21.080639 -5.807276 2.757886 0.614046 38.743691 7.125000 0.000000 0.000000 
10.367914 18.135056 -40.596863 177.226846 -73.212914 179.379773 -23.072848 -14.011833 -2.048697 -0.643609 10.688544 31.905242 1.457541 0.012791 9.135099 0.027700 -1.074400 -2.953500 13.918905 26.404580 -6.892731 0.419931 -10.733506 31.374011 -2.639971 2.741722 1.112673 -1.549300 7.856400 -22.278600 0.965382 6.208277 -3.008421 -4.343576 2.627027 -6.884571 2.658512 -7.367900 10.307380 -1.497000 -3.729200 3.775700 -5.674579 2.092594 -33.421614 19.589695 -23.967397 -5.512507 1.733502 -0.781236 31.422207 -7.125000 0.000000 0.000000 31.304922 -9.134318 4.379792 -15.902328 20.606603 -5.629978 2.791549 0.573350 40.446700 7.125000 0.000000 0.000000 
10.373094 18.160112 -40.672392 178.942304 -76.309555 177.797575 -22.219333 -14.520259 -2.147563 -0.544258 10.822263 32.434291 2.293294 -2.166246 10.126472 0.276600 3.382900 9.346600 14.435203 26.493162 -6.132221 0.711804 -10.332198 30.292113 -2.083830 1.372753 1.178395 -2.161100 9.193900 -26.403800 1.036934 6.297603 -2.914379 -4.385582 2.656417 -6.795391 3.000637 -6.890679 10.525539 -1.376200 -3.464600 3.892700 -4.453231 -0.018520 -30.244379 20.097290 -24.649978 -5.779881 1.672542 -0.746791 31.942560 -7.125000 0.000000 0.000000 30.141225 -10.138068 10.883593 -15.354044 20.138713 -5.471661 2.838947 0.614706 41.021003 7.125000 0.000000 0.000000 
10.374540 18.182157 -40.747078 -179.865139 -79.564588 176.681848 -21.745910 -15.067947 -2.157440 -0.428997 10.983954 32.976915 2.753359 -3.460688 10.650502 0.945600 6.193300 17.346300 14.678375 26.483266 -5.387494 0.939202 -9.951970 29.378260 -2.362122 2.091307 1.728045 -1.720900 8.258700 -23.502600 0.962801 6.368075 -2.901245 -4.417004 2.674849 -6.863702 3.338349 -6.332228 10.868059 -1.303100 -3.143000 4.075900 -3.052692 -2.345156 -26.998057 20.488638 -25.244322 -6.006450 1.613107 -0.690455 33.340458 -7.125000 0.000000 0.000000 29.304351 -11.392901 17.440186 -14.945710 19.811390 -5.359419 2.862988 0.667543 41.501125 7.125000 0.000000 0.000000 
10.378274 18.191071 -40.824174 -178.940267 -83.046555 175.818790 -21.589400 -15.821560 -2.027372 -0.303296 11.171174 33.481060 2.762204 -3.545297 10.586320 1.073100 6.585000 18.491600 14.751693 26.274900 -4.701486 1.132038 -9.622595 28.575350 -1.982074 1.128341 1.855486 -1.908900 8.673700 -24.779700 0.556116 6.568937 -3.045734 -4.741124 2.723063 -7.140851 3.709667 -5.854467 11.587832 -1.292700 -2.822200 4.460600 -0.674291 -4.825153 -22.472654 20.759726 -25.899633 -6.237427 1.555774 -0.649985 33.481277 -7.125000 0.000000 0.000000 29.400752 -13.240482 22.783745 -14.611685 19.506239 -5.241801 2.835602 0.647990 42.987787 7.125000 0.000000 0.000000 
10.380924 18.205767 -40.907895 -173.158140 -86.454219 170.166490 -21.108285 -15.736066 -2.509181 -0.183372 11.362496 33.968519 2.849333 -3.771684 10.671536 0.936300 6.163400 17.259300 15.006426 26.002119 -4.074214 1.286407 -9.357323 27.934333 -1.204757 -0.764725 1.599567 -2.337200 9.535700 -27.485800 -0.014391 6.874936 -3.259604 -5.440159 2.807455 -7.503855 4.348676 -5.396405 12.135878 -1.152300 -2.500800 4.737100 0.948812 -7.446104 -18.581427 21.738883 -27.265995 -6.812379 1.474231 -0.603874 34.079624 -7.125000 0.000000 0.000000 30.269009 -15.219281 27.008033 -14.255875 19.106079 -5.109089 2.776429 0.588984 45.170033 7.125000 0.000000 0.000000 
10.388031 18.216850 -40.995350 -24.662209 -88.914252 21.886300 -20.565430 -15.762160 -2.812438 -0.010023 11.450775 34.494124 2.760699 -3.518545 10.620790 0.668700 5.229500 14.564200 15.294497 25.657947 -3.827650 1.448784 -9.263893 27.386809 -0.366122 -2.750762 1.068572 -2.537900 9.906500 -28.674600 -0.167906 6.662011 -3.261520 -5.618473 2.561252 -7.530325 4.996482 -4.763627 12.884876 -0.810300 -2.112700 4.640500 1.762044 -9.670935 -15.565740 22.998346 -28.764136 -7.516481 1.375614 -0.541544 34.696470 -7.125000 0.000000 0.000000 30.591867 -16.595729 31.046112 -13.876945 18.671335 -4.971766 2.718728 0.561537 47.071121 7.125000 0.000000 0.000000 
